<html>
<head>
<meta charset="UTF-8">
<meta name="viewport" content="width=device-width, initial-scale=1.0"/>

<style>
.comment
{
    padding-left: 20px;
    margin-top: 4px;
    margin-right: 4px;
    margin-bottom: 4px;
    border: 2px #000 solid;
}
.submission
{
    border: 4px #00f solid;
    padding-left: 20px;
}
.hidden
{
    display: none;
}
</style>
</head>
<body><div class="submission" id="t3_696mpw">
    <p class="userinfo">
        <a href="https://www.reddit.com/u/RidiculousCoconut">RidiculousCoconut</a>
        <span class="score"> | 37 points</span>
        <span class="timestamp"> | May 04 2017 10:10:41</span>
    </p>
    <strong>[MOVIE] Captain America: The Winter Soldier-Grym [2014] [1080p] [Bluray] [DTS-HD-7.1] [x264][18.1GB]</strong>
    <p><p><strong>Link:</strong> /#!cWpwELoD</p>
<p><strong>Key:</strong> !DVNbUaXGjqDK3KkLDWvN_AhfOlAWPJHeVDkTF3jgALI</p>
<p><strong>MEDIA INFO:</strong></p>
<p><strong>General</strong>
Format                         : Matroska
Format version                 : Version 4 / Version 2
File size                      : 18.1 GiB
Duration                       : 2 h 15 min
Overall bit rate mode          : Variable
Overall bit rate               : 19.1 Mb/s
Encoded date                   : UTC 2014-08-02 16:08:12
Writing application            : mkvmerge v7.1.0 ('Good Love') 64bit built on Jul 27 2014 13:06:55
Writing library                : libebml v1.3.0 + libmatroska v1.4.1</p>
<p><strong>Video</strong></p>
<p>ID                             : 1
Format                         : AVC
Format/Info                    : Advanced Video Codec
Format profile                 : High@L4.1
Format settings, CABAC         : Yes
Format settings, ReFrames      : 4 frames
Format settings, GOP           : M=4, N=24
Codec ID                       : V_MPEG4/ISO/AVC
Duration                       : 2 h 15 min
Bit rate mode                  : Variable
Bit rate                       : 14.0 Mb/s
Maximum bit rate               : 30.0 Mb/s
Width                          : 1920 pixels
Height                         : 1080 pixels
Display aspect ratio           : 16:9
Frame rate mode                : Constant
Frame rate                     : 23.976 (24000/1001) FPS
Color space                    : YUV
Chroma subsampling             : 4:2:0
Bit depth                      : 8 bits
Scan type                      : Progressive
Bits/(Pixel*Frame)             : 0.282
Stream size                    : 13.3 GiB (73%)
Language                       : English
Default                        : Yes
Forced                         : No</p>
<p><strong>Audio #1</strong></p>
<p>ID                             : 2
Format                         : DTS
Format/Info                    : Digital Theater Systems
Format profile                 : MA / Core
Mode                           : 16
Format settings, Endianness    : Big
Codec ID                       : A_DTS
Duration                       : 2 h 15 min
Bit rate mode                  : Variable / Constant
Bit rate                       : 4 767 kb/s / 1 509 kb/s
Channel(s)                     : 8 channels / 6 channels
Channel positions              : Front: L C R, Side: L R, Back: L R, LFE / Front: L C R, Side: L R, LFE
Sampling rate                  : 48.0 kHz
Frame rate                     : 93.750 FPS (512 spf)
Bit depth                      : 24 bits
Compression mode               : Lossless / Lossy
Stream size                    : 4.52 GiB (25%)
Language                       : English
Default                        : Yes
Forced                         : No</p>
<p><strong>Audio #2</strong></p>
<p>ID                             : 3
Format                         : AC-3
Format/Info                    : Audio Coding 3
Format settings, Endianness    : Big
Codec ID                       : A_AC3
Duration                       : 2 h 15 min
Bit rate mode                  : Constant
Bit rate                       : 192 kb/s
Channel(s)                     : 2 channels
Channel positions              : Front: L R
Sampling rate                  : 48.0 kHz
Frame rate                     : 31.250 FPS (1536 spf)
Bit depth                      : 16 bits
Compression mode               : Lossy
Stream size                    : 187 MiB (1%)
Language                       : English
Service kind                   : Complete Main
Default                        : No
Forced                         : No</p></p>
    <p class="toolbar">
        <a href="https://www.reddit.com/r/megalinks/comments/696mpw">permalink</a>
    </p>
</div>
<div class="comment" id="t1_dh4au85">
    <p class="userinfo">
        <a
        class="toggle_hide_button"
        href="javascript:void(0)"
        onclick="toggle_collapse(this.parentElement.parentElement)">[-]
        </a>
        <a href="https://www.reddit.com/u/n0197exe">n0197exe</a>
        <span class="score"> | 2 points</span>
        <span class="timestamp"> | May 04 2017 13:16:30</span>
    </p>
    <div class="collapsible">
        <p>Nice start man.</p>
        <p class="toolbar">
            <a href="https://www.reddit.com/r/megalinks/comments/696mpw/_/dh4au85">permalink</a>
        </p>
        
    </div>
</div>

<div class="comment" id="t1_dh4ewy4">
    <p class="userinfo">
        <a
        class="toggle_hide_button"
        href="javascript:void(0)"
        onclick="toggle_collapse(this.parentElement.parentElement)">[-]
        </a>
        <a href="https://www.reddit.com/u/Frodo_Bomb">Frodo_Bomb</a>
        <span class="score"> | 1 points</span>
        <span class="timestamp"> | May 04 2017 14:42:27</span>
    </p>
    <div class="collapsible">
        <p>Thanks for sharing! This is double the size of the one I already had, I love it!!</p>
        <p class="toolbar">
            <a href="https://www.reddit.com/r/megalinks/comments/696mpw/_/dh4ewy4">permalink</a>
        </p>
        
    </div>
</div>

<div class="comment" id="t1_dh5ltte">
    <p class="userinfo">
        <a
        class="toggle_hide_button"
        href="javascript:void(0)"
        onclick="toggle_collapse(this.parentElement.parentElement)">[-]
        </a>
        <a href="https://www.reddit.com/u/dosemeele">dosemeele</a>
        <span class="score"> | 1 points</span>
        <span class="timestamp"> | May 05 2017 05:35:40</span>
    </p>
    <div class="collapsible">
        <p>Thank you!</p>
        <p class="toolbar">
            <a href="https://www.reddit.com/r/megalinks/comments/696mpw/_/dh5ltte">permalink</a>
        </p>
        
    </div>
</div>

<div class="comment" id="t1_dh77rbw">
    <p class="userinfo">
        <a
        class="toggle_hide_button"
        href="javascript:void(0)"
        onclick="toggle_collapse(this.parentElement.parentElement)">[-]
        </a>
        <a href="https://www.reddit.com/u/FoxRaptix">FoxRaptix</a>
        <span class="score"> | 1 points</span>
        <span class="timestamp"> | May 06 2017 08:09:41</span>
    </p>
    <div class="collapsible">
        <p>Already taken down</p>
        <p class="toolbar">
            <a href="https://www.reddit.com/r/megalinks/comments/696mpw/_/dh77rbw">permalink</a>
        </p>
        
    </div>
</div>
</body>

<script>
function toggle_collapse(comment_div)
{
    var button = comment_div.getElementsByClassName("toggle_hide_button")[0];
    var collapsible = comment_div.getElementsByClassName("collapsible")[0];
    if (collapsible.classList.contains("hidden"))
    {
        collapsible.classList.remove("hidden");
        button.innerText = "[-]";
    }
    else
    {
        collapsible.classList.add("hidden");
        button.innerText = "[+]";
    }
}
</script>
</html>
